<svg xmlns="http://www.w3.org/2000/svg" viewBox="0 0 135 40"><defs><style>.cls-1{fill:#a6a6a6;}.cls-2{fill:#fff;}</style></defs><title>Fichier 1</title><g id="Calque_2" data-name="Calque 2"><g id="US_UK_Download_on_the" data-name="US UK Download on the"><path class="cls-1" d="M130.2,40H4.73A4.74,4.74,0,0,1,0,35.27V4.73A4.73,4.73,0,0,1,4.73,0H130.2A4.8,4.8,0,0,1,135,4.73V35.27A4.8,4.8,0,0,1,130.2,40Z"/><path d="M134,35.27a3.83,3.83,0,0,1-3.83,3.83H4.73A3.83,3.83,0,0,1,.89,35.27V4.72A3.84,3.84,0,0,1,4.73.89H130.2A3.83,3.83,0,0,1,134,4.72V35.27Z"/><path class="cls-2" d="M30.13,19.78a5.8,5.8,0,0,1,2.76-4.86,5.94,5.94,0,0,0-4.68-2.53c-2-.21-3.87,1.18-4.88,1.18s-2.57-1.16-4.23-1.12a6.23,6.23,0,0,0-5.24,3.2c-2.27,3.92-.58,9.69,1.6,12.86,1.09,1.55,2.36,3.29,4,3.23s2.23-1,4.19-1,2.51,1,4.21,1,2.84-1.56,3.89-3.13a12.83,12.83,0,0,0,1.78-3.62A5.6,5.6,0,0,1,30.13,19.78Z"/><path class="cls-2" d="M26.93,10.31a5.71,5.71,0,0,0,1.31-4.09,5.81,5.81,0,0,0-3.76,1.94,5.43,5.43,0,0,0-1.34,3.94A4.8,4.8,0,0,0,26.93,10.31Z"/><path class="cls-2" d="M53.65,31.5H51.37l-1.24-3.91H45.81L44.62,31.5H42.41L46.69,18.2h2.65ZM49.76,26l-1.12-3.48Q48.45,21.95,48,20h0q-.2.85-.63,2.51L46.18,26Z"/><path class="cls-2" d="M64.66,26.59a5.45,5.45,0,0,1-1.32,3.87,3.87,3.87,0,0,1-2.94,1.26,2.94,2.94,0,0,1-2.72-1.36h0v5.05H55.5V25.07q0-1.54-.08-3.16H57.3l.12,1.52h0a3.79,3.79,0,0,1,6.07-.38A5.29,5.29,0,0,1,64.66,26.59Zm-2.17.08a4,4,0,0,0-.63-2.31A2.18,2.18,0,0,0,60,23.41a2.22,2.22,0,0,0-1.43.52,2.43,2.43,0,0,0-.84,1.37,2.79,2.79,0,0,0-.1.65v1.6a2.56,2.56,0,0,0,.64,1.77,2.13,2.13,0,0,0,1.67.72,2.18,2.18,0,0,0,1.88-.93A4.08,4.08,0,0,0,62.49,26.67Z"/><path class="cls-2" d="M75.7,26.59a5.45,5.45,0,0,1-1.32,3.87,3.86,3.86,0,0,1-2.94,1.26,2.94,2.94,0,0,1-2.72-1.36h0v5.05H66.54V25.07q0-1.54-.08-3.16h1.88l.12,1.52h0a3.79,3.79,0,0,1,6.07-.38A5.3,5.3,0,0,1,75.7,26.59Zm-2.17.08a4,4,0,0,0-.63-2.31A2.18,2.18,0,0,0,71,23.41a2.22,2.22,0,0,0-1.43.52,2.42,2.42,0,0,0-.84,1.37,2.85,2.85,0,0,0-.1.65v1.6a2.57,2.57,0,0,0,.64,1.77A2.13,2.13,0,0,0,71,30a2.18,2.18,0,0,0,1.88-.93A4.08,4.08,0,0,0,73.53,26.67Z"/><path class="cls-2" d="M88,27.77a3.55,3.55,0,0,1-1.18,2.76,5.24,5.24,0,0,1-3.62,1.17,6.35,6.35,0,0,1-3.45-.83l.49-1.78a5.84,5.84,0,0,0,3.08.85,2.91,2.91,0,0,0,1.88-.54,1.78,1.78,0,0,0,.67-1.45,1.85,1.85,0,0,0-.55-1.36,5.14,5.14,0,0,0-1.84-1Q80,24.25,80,21.74A3.38,3.38,0,0,1,81.25,19a4.83,4.83,0,0,1,3.26-1,6.46,6.46,0,0,1,3,.63L87,20.37a5.24,5.24,0,0,0-2.55-.61,2.58,2.58,0,0,0-1.76.55,1.58,1.58,0,0,0-.53,1.2,1.63,1.63,0,0,0,.61,1.3,6.91,6.91,0,0,0,1.94,1,6.57,6.57,0,0,1,2.53,1.62A3.38,3.38,0,0,1,88,27.77Z"/><path class="cls-2" d="M95.09,23.51H92.74v4.66q0,1.78,1.24,1.78a3.79,3.79,0,0,0,.95-.1L95,31.46a4.83,4.83,0,0,1-1.66.24,2.56,2.56,0,0,1-2-.77,3.78,3.78,0,0,1-.71-2.59V23.51h-1.4v-1.6h1.4V20.15l2.09-.63v2.39h2.35Z"/><path class="cls-2" d="M105.69,26.63a5.26,5.26,0,0,1-1.26,3.63,4.51,4.51,0,0,1-3.52,1.46,4.29,4.29,0,0,1-3.36-1.4,5.1,5.1,0,0,1-1.25-3.53,5.21,5.21,0,0,1,1.29-3.65,4.47,4.47,0,0,1,3.48-1.42,4.38,4.38,0,0,1,3.4,1.4A5,5,0,0,1,105.69,26.63Zm-2.21.07a4.32,4.32,0,0,0-.57-2.28A2.11,2.11,0,0,0,101,23.27a2.14,2.14,0,0,0-2,1.15,4.4,4.4,0,0,0-.57,2.32A4.31,4.31,0,0,0,99,29a2.18,2.18,0,0,0,3.85,0A4.33,4.33,0,0,0,103.48,26.7Z"/><path class="cls-2" d="M112.62,23.78a3.7,3.7,0,0,0-.67-.06,2,2,0,0,0-1.74.85,3.19,3.19,0,0,0-.53,1.9v5h-2.13l0-6.57q0-1.66-.08-3h1.86l.08,1.84h.06a3.28,3.28,0,0,1,1.07-1.52,2.58,2.58,0,0,1,1.54-.51,3.42,3.42,0,0,1,.53,0Z"/><path class="cls-2" d="M122.16,26.25a5,5,0,0,1-.08,1h-6.4a2.78,2.78,0,0,0,.93,2.17,3.17,3.17,0,0,0,2.09.67,7.07,7.07,0,0,0,2.59-.45l.33,1.48a8,8,0,0,1-3.22.59,4.66,4.66,0,0,1-3.51-1.31,4.85,4.85,0,0,1-1.27-3.52,5.5,5.5,0,0,1,1.19-3.61,4.09,4.09,0,0,1,3.36-1.54,3.58,3.58,0,0,1,3.14,1.54A5.19,5.19,0,0,1,122.16,26.25Zm-2-.55a2.9,2.9,0,0,0-.41-1.64,1.86,1.86,0,0,0-1.7-.89,2,2,0,0,0-1.7.87,3.18,3.18,0,0,0-.63,1.66h4.44Z"/><path class="cls-2" d="M42.39,7.57a7.46,7.46,0,0,1,1.4-.12,2.46,2.46,0,0,1,1.63.43,1.25,1.25,0,0,1,.49,1,1.41,1.41,0,0,1-1,1.31v0a1.53,1.53,0,0,1,1.23,1.49,1.6,1.6,0,0,1-.5,1.19,3,3,0,0,1-2.06.56,9,9,0,0,1-1.19-.07ZM43.16,10h.7c.81,0,1.29-.42,1.29-1s-.53-1-1.31-1a3.3,3.3,0,0,0-.68.05Zm0,2.85a4.12,4.12,0,0,0,.64,0c.79,0,1.53-.29,1.53-1.16s-.7-1.15-1.53-1.15h-.64Z"/><path class="cls-2" d="M48,8a.48.48,0,0,1-1,0,.47.47,0,0,1,.48-.48A.46.46,0,0,1,48,8Zm-.86,5.47V9.17h.78v4.27Z"/><path class="cls-2" d="M49.64,11.44a1.37,1.37,0,0,0,1.46,1.48,2.81,2.81,0,0,0,1.18-.22l.13.56a3.46,3.46,0,0,1-1.42.26,2,2,0,0,1-2.1-2.15,2.07,2.07,0,0,1,2-2.3,1.81,1.81,0,0,1,1.76,2,3,3,0,0,1,0,.36Zm2.28-.56a1.11,1.11,0,0,0-1.08-1.26,1.29,1.29,0,0,0-1.19,1.26Z"/><path class="cls-2" d="M53.63,10.32c0-.44,0-.8,0-1.16h.69l0,.71h0a1.57,1.57,0,0,1,1.41-.8c.59,0,1.51.35,1.51,1.82v2.55h-.78V11c0-.69-.26-1.26-1-1.26a1.1,1.1,0,0,0-1,.79,1.12,1.12,0,0,0-.05.36v2.57h-.78Z"/><path class="cls-2" d="M59.42,7.94V9.17h1.11v.59H59.42v2.3c0,.53.15.83.58.83a1.73,1.73,0,0,0,.45-.05l0,.58a1.9,1.9,0,0,1-.69.11A1.07,1.07,0,0,1,59,13.2a1.58,1.58,0,0,1-.3-1.11V9.76H58V9.17h.66v-1Z"/><path class="cls-2" d="M65.22,11.27a2.09,2.09,0,0,1-2.13,2.27,2,2,0,0,1-2-2.2,2.08,2.08,0,0,1,2.12-2.27A2,2,0,0,1,65.22,11.27Zm-3.39,0c0,.94.54,1.64,1.3,1.64s1.3-.7,1.3-1.66c0-.72-.36-1.64-1.28-1.64S61.83,10.5,61.83,11.31Zm1.56-4,.85,1.26h-.6l-.51-.84h0l-.51.84H62l.83-1.26Z"/><path class="cls-2" d="M67.13,7.94V9.17h1.11v.59H67.13v2.3c0,.53.15.83.58.83a1.73,1.73,0,0,0,.45-.05l0,.58a1.9,1.9,0,0,1-.69.11,1.07,1.07,0,0,1-.84-.33,1.58,1.58,0,0,1-.3-1.11V9.76h-.66V9.17h.66v-1Z"/><path class="cls-2" d="M74.67,7.17v5.16c0,.38,0,.81,0,1.1H74l0-.74h0a1.58,1.58,0,0,1-1.46.84,2,2,0,0,1-1.83-2.17,2,2,0,0,1,1.91-2.29,1.43,1.43,0,0,1,1.29.65h0V7.17Zm-.78,3.73a1.32,1.32,0,0,0,0-.33,1.14,1.14,0,0,0-1.12-.9c-.8,0-1.28.71-1.28,1.65s.42,1.58,1.26,1.58A1.17,1.17,0,0,0,73.86,12a1.31,1.31,0,0,0,0-.34Z"/><path class="cls-2" d="M76.82,8a.48.48,0,0,1-1,0,.47.47,0,0,1,.49-.48A.46.46,0,0,1,76.82,8ZM76,13.44V9.17h.78v4.27Z"/><path class="cls-2" d="M77.92,12.64a2,2,0,0,0,1,.31c.56,0,.83-.28.83-.64s-.22-.57-.79-.78c-.77-.27-1.13-.7-1.13-1.21a1.32,1.32,0,0,1,1.47-1.25,2.13,2.13,0,0,1,1,.26l-.19.56a1.66,1.66,0,0,0-.87-.25c-.46,0-.71.26-.71.58s.26.51.81.72c.74.28,1.12.65,1.12,1.29s-.58,1.28-1.6,1.28a2.44,2.44,0,0,1-1.2-.29Z"/><path class="cls-2" d="M81.52,10.56c0-.55,0-1,0-1.39h.7l0,.73h0a1.68,1.68,0,0,1,1.52-.83,1.93,1.93,0,0,1,1.81,2.17,2,2,0,0,1-1.94,2.29,1.5,1.5,0,0,1-1.31-.67h0v2.32h-.77Zm.77,1.14a1.75,1.75,0,0,0,0,.32,1.2,1.2,0,0,0,1.16.91c.82,0,1.3-.67,1.3-1.65s-.45-1.59-1.27-1.59a1.24,1.24,0,0,0-1.17,1,1.27,1.27,0,0,0-.05.32Z"/><path class="cls-2" d="M90.4,11.27a2.09,2.09,0,0,1-2.13,2.27,2,2,0,0,1-2-2.2,2.08,2.08,0,0,1,2.12-2.27A2,2,0,0,1,90.4,11.27Zm-3.39,0c0,.94.54,1.64,1.3,1.64s1.3-.7,1.3-1.66c0-.72-.36-1.64-1.28-1.64S87,10.5,87,11.31Z"/><path class="cls-2" d="M91.38,10.32c0-.44,0-.8,0-1.16H92l0,.71h0a1.57,1.57,0,0,1,1.41-.8c.59,0,1.51.35,1.51,1.82v2.55h-.78V11c0-.69-.26-1.26-1-1.26a1.1,1.1,0,0,0-1,.79,1.12,1.12,0,0,0-.05.36v2.57h-.78Z"/><path class="cls-2" d="M97.14,8a.48.48,0,0,1-1,0,.47.47,0,0,1,.49-.48A.46.46,0,0,1,97.14,8Zm-.86,5.47V9.17H97v4.27Z"/><path class="cls-2" d="M98.3,13.44c0-.29,0-.72,0-1.1V7.17h.77V9.86h0a1.59,1.59,0,0,1,1.46-.79,1.92,1.92,0,0,1,1.8,2.18,2,2,0,0,1-1.91,2.28,1.52,1.52,0,0,1-1.43-.8h0l0,.71Zm.8-1.71a1.46,1.46,0,0,0,0,.28,1.2,1.2,0,0,0,1.16.91c.81,0,1.3-.66,1.3-1.64s-.44-1.59-1.27-1.59a1.24,1.24,0,0,0-1.18,1,1.54,1.54,0,0,0,0,.32Z"/><path class="cls-2" d="M103.35,7.17h.78v6.26h-.78Z"/><path class="cls-2" d="M105.87,11.44a1.37,1.37,0,0,0,1.46,1.48,2.81,2.81,0,0,0,1.18-.22l.13.56a3.46,3.46,0,0,1-1.42.26,2,2,0,0,1-2.1-2.15,2.07,2.07,0,0,1,2-2.3,1.81,1.81,0,0,1,1.76,2,2.91,2.91,0,0,1,0,.36Zm2.28-.56a1.11,1.11,0,0,0-1.08-1.26,1.29,1.29,0,0,0-1.19,1.26Z"/><path class="cls-2" d="M111.62,12.64a2,2,0,0,0,1,.31c.56,0,.83-.28.83-.64s-.22-.57-.79-.78c-.77-.27-1.13-.7-1.13-1.21A1.32,1.32,0,0,1,113,9.07a2.13,2.13,0,0,1,1,.26l-.19.56a1.66,1.66,0,0,0-.87-.25c-.46,0-.71.26-.71.58s.26.51.81.72c.74.28,1.12.65,1.12,1.29s-.58,1.28-1.6,1.28a2.44,2.44,0,0,1-1.2-.29Z"/><path class="cls-2" d="M118.79,12.27c0,.44,0,.83,0,1.16h-.69l0-.7h0a1.61,1.61,0,0,1-1.41.79c-.67,0-1.47-.37-1.47-1.87V9.17H116v2.36c0,.81.25,1.36,1,1.36a1.12,1.12,0,0,0,1-.71,1.14,1.14,0,0,0,.07-.4V9.17h.78Z"/><path class="cls-2" d="M120.08,10.5c0-.5,0-.93,0-1.33h.68l0,.84h0A1.28,1.28,0,0,1,122,9.07a.85.85,0,0,1,.22,0v.73a1.18,1.18,0,0,0-.26,0,1.09,1.09,0,0,0-1,1,2.2,2.2,0,0,0,0,.36v2.28h-.77Z"/></g></g></svg>