<svg xmlns="http://www.w3.org/2000/svg" viewBox="0 0 54.17 54.17"><defs><style>.cls-1{opacity:0.25;}</style></defs><title>Fichier 5</title><g id="Calque_2" data-name="Calque 2"><g id="Calque_1-2" data-name="Calque 1"><g class="cls-1"><path d="M27.09,4.88c7.23,0,8.09,0,10.94.16a15,15,0,0,1,5,.93,8.39,8.39,0,0,1,3.11,2,8.39,8.39,0,0,1,2,3.11,15,15,0,0,1,.93,5c.13,2.86.16,3.71.16,10.94s0,8.09-.16,10.94a15,15,0,0,1-.93,5,9,9,0,0,1-5.14,5.14,15,15,0,0,1-5,.93c-2.86.13-3.71.16-10.94.16s-8.09,0-10.94-.16a15,15,0,0,1-5-.93,8.39,8.39,0,0,1-3.11-2,8.4,8.4,0,0,1-2-3.11A15,15,0,0,1,5,38c-.13-2.86-.16-3.71-.16-10.94S4.91,19,5,16.14a15,15,0,0,1,.93-5A8.39,8.39,0,0,1,8,8a8.39,8.39,0,0,1,3.11-2,15,15,0,0,1,5-.93c2.86-.13,3.71-.16,10.94-.16m0-4.88c-7.36,0-8.28,0-11.17.16A19.88,19.88,0,0,0,9.34,1.42a13.28,13.28,0,0,0-4.8,3.12,13.28,13.28,0,0,0-3.12,4.8A19.87,19.87,0,0,0,.16,15.92C0,18.81,0,19.73,0,27.09s0,8.28.16,11.17a19.87,19.87,0,0,0,1.26,6.57,13.28,13.28,0,0,0,3.12,4.8,13.28,13.28,0,0,0,4.8,3.12A19.89,19.89,0,0,0,15.92,54c2.89.13,3.81.16,11.17.16s8.28,0,11.17-.16a19.89,19.89,0,0,0,6.57-1.26,13.85,13.85,0,0,0,7.92-7.92A19.88,19.88,0,0,0,54,38.25c.13-2.89.16-3.81.16-11.17s0-8.28-.16-11.17a19.88,19.88,0,0,0-1.26-6.57,13.28,13.28,0,0,0-3.12-4.8,13.28,13.28,0,0,0-4.8-3.12A19.88,19.88,0,0,0,38.25.16C35.36,0,34.44,0,27.09,0"/><path d="M27.09,13.18A13.91,13.91,0,1,0,41,27.09,13.91,13.91,0,0,0,27.09,13.18m0,22.94a9,9,0,1,1,9-9,9,9,0,0,1-9,9"/><path d="M44.79,12.63a3.25,3.25,0,1,1-3.25-3.25,3.25,3.25,0,0,1,3.25,3.25"/></g></g></g></svg>