<svg xmlns="http://www.w3.org/2000/svg" viewBox="0 0 290.39 105.1"><title>logo</title><g><g><path d="M66.33,71.25v2.18a17.88,17.88,0,0,1-.14,2.18H16.38a16.24,16.24,0,0,0,1.84,6.48,16.45,16.45,0,0,0,4.16,5,20.61,20.61,0,0,0,5.87,3.34,19.29,19.29,0,0,0,6.82,1.23,21.85,21.85,0,0,0,10.37-2.25,19.44,19.44,0,0,0,7-6.21L63.33,92q-9.69,13.1-28.12,13.1a40,40,0,0,1-14.06-2.39A33.08,33.08,0,0,1,10,96,30.43,30.43,0,0,1,2.66,85.24,36.93,36.93,0,0,1,0,70.84a37.58,37.58,0,0,1,2.66-14.4A32.08,32.08,0,0,1,21,38.29a36.77,36.77,0,0,1,13.72-2.52A34.59,34.59,0,0,1,47.29,38a27.38,27.38,0,0,1,10,6.69,31,31,0,0,1,6.62,11.05A45.64,45.64,0,0,1,66.33,71.25ZM50,63.88a20.21,20.21,0,0,0-.89-6,13.39,13.39,0,0,0-7.64-8.53A17,17,0,0,0,34.53,48,18.41,18.41,0,0,0,22,52.48a16.17,16.17,0,0,0-5.67,11.4Z"/><path d="M125.09,55.83a14.47,14.47,0,0,0-5.73-4.57,17.74,17.74,0,0,0-7.78-1.84,16.4,16.4,0,0,0-7.92,1.84A17.16,17.16,0,0,0,98,56.1a20.83,20.83,0,0,0-3.34,6.76,27,27,0,0,0-1.09,7.58A25.5,25.5,0,0,0,94.72,78a21.09,21.09,0,0,0,3.48,6.76,17.66,17.66,0,0,0,5.8,4.85,17.11,17.11,0,0,0,8.12,1.84,20.74,20.74,0,0,0,7.64-1.5,14.58,14.58,0,0,0,6.14-4.37L136.15,96a27.07,27.07,0,0,1-10.44,6.76A38.65,38.65,0,0,1,112,105.1a40.38,40.38,0,0,1-13.72-2.32A32,32,0,0,1,79.3,85a36.19,36.19,0,0,1-2.8-14.6A35.48,35.48,0,0,1,79.3,56.1a32.82,32.82,0,0,1,7.57-10.92,33.87,33.87,0,0,1,11.13-7,38,38,0,0,1,27.57.27A26.47,26.47,0,0,1,136.28,46Z"/><path d="M181.79,35.76a24.64,24.64,0,0,1,11,2.25A21.67,21.67,0,0,1,200.29,44a24.06,24.06,0,0,1,4.3,8.46,35.69,35.69,0,0,1,1.36,9.83v40.95H189.57v-36a44.76,44.76,0,0,0-.41-5.94,17.08,17.08,0,0,0-1.71-5.6,11.19,11.19,0,0,0-3.68-4.16,11,11,0,0,0-6.35-1.64,14.52,14.52,0,0,0-6.83,1.5,14.15,14.15,0,0,0-4.78,4A17.94,17.94,0,0,0,163,61a21.9,21.9,0,0,0-1,6.42v35.76H145.62V0H162V46.82h.27a15.76,15.76,0,0,1,2.8-4,22.07,22.07,0,0,1,4.3-3.55,22.62,22.62,0,0,1,5.6-2.53A23.38,23.38,0,0,1,181.79,35.76Z"/><path d="M219.15,70.16A34.63,34.63,0,0,1,221.94,56a33,33,0,0,1,7.57-10.85,33.42,33.42,0,0,1,11.33-7,40.68,40.68,0,0,1,27.84,0,33.4,33.4,0,0,1,11.33,7A33.06,33.06,0,0,1,287.6,56a34.67,34.67,0,0,1,2.8,14.13,35.16,35.16,0,0,1-2.8,14.2,33.62,33.62,0,0,1-7.58,11,34.55,34.55,0,0,1-11.33,7.17,38.67,38.67,0,0,1-27.84,0,34.57,34.57,0,0,1-11.33-7.17,33.55,33.55,0,0,1-7.57-11A35.12,35.12,0,0,1,219.15,70.16Zm16.65,0A26.11,26.11,0,0,0,237,77.8a21,21,0,0,0,3.48,6.82,18.19,18.19,0,0,0,5.87,4.91,19.7,19.7,0,0,0,16.92,0,18.24,18.24,0,0,0,5.87-4.91,21,21,0,0,0,3.48-6.82,26.26,26.26,0,0,0,1.16-7.64,25.62,25.62,0,0,0-1.16-7.58,21.2,21.2,0,0,0-3.48-6.76A17.53,17.53,0,0,0,263.23,51a20.35,20.35,0,0,0-16.92,0,17.49,17.49,0,0,0-5.87,4.85A21.15,21.15,0,0,0,237,62.58,25.48,25.48,0,0,0,235.8,70.16Z"/><path d="M254.77,22.11a17.6,17.6,0,0,0,8.46-1.91,18.24,18.24,0,0,0,5.87-4.91,21,21,0,0,0,3.48-6.82A26.26,26.26,0,0,0,273.74.82h16.65A35.16,35.16,0,0,1,287.6,15,33.62,33.62,0,0,1,280,26a34.55,34.55,0,0,1-11.33,7.17,37.5,37.5,0,0,1-13.92,2.59Z"/><path d="M33.17,22.11a17.6,17.6,0,0,0,8.46-1.91,18.24,18.24,0,0,0,5.87-4.91A21,21,0,0,0,51,8.46,26.26,26.26,0,0,0,52.14.82H68.79A35.16,35.16,0,0,1,66,15a33.62,33.62,0,0,1-7.58,11,34.55,34.55,0,0,1-11.33,7.17,37.5,37.5,0,0,1-13.92,2.59Z"/></g></g></svg>