<svg xmlns="http://www.w3.org/2000/svg" viewBox="0 0 53.88 24.7"><defs><style>.cls-1{opacity:0.25;}</style></defs><title>Fichier 6</title><g id="Calque_2" data-name="Calque 2"><g id="Calque_1-2" data-name="Calque 1"><g class="cls-1"><path d="M2.25,12.91a6.89,6.89,0,0,0,0,10.18Z"/><path d="M15.72,24.7V5.31a9.19,9.19,0,0,0-2.25,1.27V24.7Z"/><path d="M22.45,24.7H24.7V4A12.43,12.43,0,0,0,23.3,5.91l-.85-.41Z"/><path d="M4.49,11.62V24.39a5.9,5.9,0,0,0,2.25.31V11.34A4.92,4.92,0,0,0,4.49,11.62Z"/><path d="M18,24.7h2.25V4.83a6.38,6.38,0,0,0-2.25,0Z"/><path d="M9,24.7h2.25V8.93a10.52,10.52,0,0,0-1.55,3.45L9,12Z"/><path d="M53.88,17.72c0-5-4.87-8.47-9.25-6.32C44.17,5,39.23,0,33.14,0a10.88,10.88,0,0,0-6.2,2V24.7H47.35A6.77,6.77,0,0,0,53.88,17.72Z"/></g></g></g></svg>